<svg width="28" height="28" viewBox="0 0 28 28" fill="none" xmlns="http://www.w3.org/2000/svg">
<path d="M12.3667 5.76303L14.6767 2.88136C14.98 2.50803 14.9217 1.94803 14.5367 1.65636C14.1633 1.35303 13.615 1.41136 13.3117 1.79636L11.0017 4.67803C10.6983 5.05136 10.7567 5.61136 11.1417 5.90303C11.305 6.01969 11.5033 6.08969 11.69 6.08969C11.8201 6.08975 11.9486 6.0604 12.0657 6.00384C12.1829 5.94727 12.2858 5.86495 12.3667 5.76303Z" fill="white"/>
<path d="M25.2467 15.2949C25.2467 9.08822 20.2067 4.04822 14 4.04822C13.195 4.04822 12.3783 4.14155 11.4917 4.35155C11.025 4.45655 10.7217 4.93488 10.8383 5.40155C10.9433 5.86822 11.41 6.17155 11.8883 6.05488C12.635 5.87988 13.335 5.79822 14 5.79822C19.2383 5.79822 23.4967 10.0566 23.4967 15.2949C23.4967 20.5332 19.2383 24.7916 14 24.7916C8.76167 24.7916 4.50334 20.5332 4.50334 15.2949C4.50334 13.2649 5.16834 11.3049 6.42834 9.62488C6.56758 9.43923 6.62737 9.20587 6.59455 8.97614C6.56173 8.74641 6.43899 8.53912 6.25334 8.39988C6.06769 8.26065 5.83433 8.20086 5.6046 8.23368C5.37486 8.2665 5.16758 8.38923 5.02834 8.57488C3.53501 10.5582 2.75334 12.8799 2.75334 15.2949C2.75334 21.5016 7.80501 26.5416 14 26.5416C20.195 26.5416 25.2467 21.5016 25.2467 15.2949Z" fill="white"/>
<path d="M13.125 16.3867V11H18.4365V12.4287H14.4717V14.6846C14.9365 14.32 15.4674 14.1377 16.0645 14.1377C16.4473 14.1468 16.7982 14.2152 17.1172 14.3428C17.418 14.484 17.6618 14.6572 17.8486 14.8623C18.1266 15.1357 18.3271 15.4525 18.4502 15.8125C18.514 16.0085 18.5596 16.2477 18.5869 16.5303C18.6143 16.8174 18.6279 17.1706 18.6279 17.5898C18.6279 18.237 18.5824 18.7337 18.4912 19.0801C18.3955 19.4219 18.236 19.7249 18.0127 19.9893C17.8167 20.249 17.5319 20.486 17.1582 20.7002C16.7936 20.9235 16.3607 21.0397 15.8594 21.0488C15.1849 21.0488 14.5674 20.8483 14.0068 20.4473C13.4372 20.0371 13.084 19.374 12.9473 18.458H14.376C14.5309 19.2236 15.0072 19.611 15.8047 19.6201C16.1465 19.6201 16.4199 19.5518 16.625 19.415C16.821 19.2829 16.9577 19.1097 17.0352 18.8955C17.1172 18.6813 17.1673 18.4489 17.1855 18.1982C17.1947 17.9521 17.1992 17.7129 17.1992 17.4805C17.2083 16.9108 17.1195 16.4482 16.9326 16.0928C16.8324 15.9242 16.6842 15.7897 16.4883 15.6895C16.2923 15.6074 16.0485 15.5664 15.7568 15.5664C15.4971 15.5664 15.2601 15.6257 15.0459 15.7441C14.8317 15.8672 14.6403 16.0814 14.4717 16.3867H13.125Z" fill="white"/>
<path d="M10.415 12.5107L9 13.5498V12.0322L10.415 11H11.8438V20.9668H10.415V12.5107Z" fill="white"/>
</svg>
