<svg fill="none" height="27" viewBox="0 0 26 27" width="26" xmlns="http://www.w3.org/2000/svg" xmlns:xlink="http://www.w3.org/1999/xlink"><clipPath id="a"><rect height="26" rx="6" width="26" y=".5"/></clipPath><mask id="b" height="27" maskUnits="userSpaceOnUse" width="26" x="0" y="0"><path d="m0 .5h26v26h-26z" fill="#007aff"/></mask><g clip-path="url(#a)"><path d="m0 .5h26v26h-26z" fill="#007aff"/><g mask="url(#b)"><circle cx="3.45312" cy="3.896" fill="#d9d9d9" opacity=".1" r="12.5557"/><path d="m17.3935 17.3115c-.1273.1801-.3282.2941-.5481.3112-.5912.0457-.9942-.5866-.703-1.1031l4.1585-7.37835c.2045-.36282.5859-.59017 1.0023-.59747.9617-.01685 1.5345 1.06637.9793 1.85172z" fill="#fff"/><path d="m16.0908 19.2562c.3816-.0175.6856-.3324.6856-.7183s-.304-.7008-.6856-.7183v-.0008h-.0319c-.0005 0-.001 0-.0015 0s-.001 0-.0015 0h-.4433c-.3971 0-.719.322-.719.7191s.3219.719.719.719h.4782z" fill="#ff9500"/><g fill="#fff"><path d="m10.2241 15.4384c.0553.3258-.1155.648-.41621.785-.37781.1722-.8229-.0056-.97807-.3907l-1.61792-4.0153c-.24292-.6029.04025-1.2894.63755-1.5457.71134-.30525 1.52081.1356 1.65033.8987z"/><path d="m7.46186 16.3176c.13226.3028.04419.6568-.21456.8623-.32512.2582-.79996.193-1.04346-.1433l-2.53884-3.5063c-.38119-.5265-.27201-1.261.24581-1.6539.61669-.4678 1.5086-.2353 1.81841.4741z"/><path d="m8.66774 12.8864c.41986-.1461.86295.1499.88879.5937.01615.2773-.14059.5359-.39396.6498l-2.10465.9464c-.50986.2293-1.08663-.1432-1.08732-.7023-.0004-.3285.20739-.6212.51767-.7292z"/><path d="m18.25 12.6984c.0095.1361-.018.2723-.0797.394-.3078.6073-1.1988.5291-1.3962-.1224l-1.1268-3.71834c-.239-.78863.3744-1.57632 1.1976-1.53778.6046.02831 1.0922.50485 1.1343 1.10863z"/><path clip-rule="evenodd" d="m11.8073 10.5111c.5787-.4204 1.2825-.60206 1.9789-.5109 1.2232.16 1.9078 1.6587 1.1538 2.6351-.184.2384-.7491.5177-1.2539.7326-.3585.1526-.7062-.1925-.5876-.5636.1544-.4833.6877-.8652.6877-1.0968 0-.1248.0011-.2087-.1241-.2924-.2741-.1832-.7041.1321-.8726.2924-.1632.1554-.484.5115-.5818.9278-.1007.4294-.0454.7769.1237 1.1226.2674.5467.8913.8159 1.4996.7961.1467-.0048.2882-.0172.405-.0418.3663-.0773.7563-.5013 1.0406-.9527.1302-.2068.3956-.2973.6128-.1855.1326.0683.2253.2002.2141.3489-.0729.9734-1.0616 1.9181-1.6697 2.157-.6578.2586-1.3822.2534-2.0367-.0145s-1.2576-.7408-1.5804-1.4008c-.3229-.6599-.4388-1.3841-.2681-2.1051.1708-.7209.68-1.4281 1.2587-1.8484z" fill-rule="evenodd"/></g></g></g></svg>