<svg width="36" height="36" viewBox="0 0 36 36" fill="none" xmlns="http://www.w3.org/2000/svg">
<g id="Component 2377">
<path id="Vector" d="M20.1 7.41009L17.13 3.70509C16.74 3.22509 16.815 2.50509 17.31 2.13009C17.79 1.74009 18.495 1.81509 18.885 2.31009L21.855 6.01509C22.245 6.49509 22.17 7.21509 21.675 7.59009C21.465 7.74009 21.21 7.83009 20.97 7.83009C20.8027 7.83017 20.6375 7.79244 20.4869 7.71971C20.3362 7.64698 20.204 7.54114 20.1 7.41009Z" fill="white"/>
<path id="Vector_2" d="M3.53998 19.6651C3.53998 11.6851 10.02 5.20508 18 5.20508C19.035 5.20508 20.085 5.32508 21.225 5.59508C21.825 5.73008 22.215 6.34508 22.065 6.94508C21.93 7.54508 21.33 7.93508 20.715 7.78508C19.755 7.56008 18.855 7.45508 18 7.45508C11.265 7.45508 5.78998 12.9301 5.78998 19.6651C5.78998 26.4001 11.265 31.8751 18 31.8751C24.735 31.8751 30.21 26.4001 30.21 19.6651C30.21 17.0551 29.355 14.5351 27.735 12.3751C27.556 12.1364 27.4791 11.8363 27.5213 11.541C27.5635 11.2456 27.7213 10.9791 27.96 10.8001C28.1987 10.6211 28.4987 10.5442 28.7941 10.5864C29.0894 10.6286 29.356 10.7864 29.535 11.0251C31.455 13.5751 32.46 16.5601 32.46 19.6651C32.46 27.6451 25.965 34.1251 18 34.1251C10.035 34.1251 3.53998 27.6451 3.53998 19.6651Z" fill="white"/>
<g id="Vector_3">
<path d="M16.875 20.4902V13.5645H23.7041V15.4014H18.6064V18.3018C19.2041 17.833 19.8867 17.5986 20.6543 17.5986C21.1465 17.6104 21.5976 17.6982 22.0078 17.8623C22.3945 18.0439 22.708 18.2666 22.9482 18.5303C23.3056 18.8818 23.5635 19.2891 23.7217 19.752C23.8037 20.0039 23.8623 20.3115 23.8974 20.6748C23.9326 21.0439 23.9502 21.498 23.9502 22.0371C23.9502 22.8691 23.8916 23.5078 23.7744 23.9531C23.6514 24.3926 23.4463 24.7822 23.1592 25.1221C22.9072 25.4561 22.541 25.7607 22.0605 26.0361C21.5918 26.3232 21.0351 26.4727 20.3906 26.4844C19.5234 26.4844 18.7295 26.2266 18.0088 25.7109C17.2763 25.1836 16.8222 24.3311 16.6465 23.1533H18.4834C18.6826 24.1377 19.2949 24.6357 20.3203 24.6475C20.7597 24.6475 21.1113 24.5596 21.375 24.3838C21.6269 24.2139 21.8027 23.9912 21.9023 23.7158C22.0078 23.4404 22.0722 23.1416 22.0957 22.8193C22.1074 22.5029 22.1133 22.1953 22.1133 21.8965C22.125 21.1641 22.0107 20.5693 21.7705 20.1123C21.6416 19.8955 21.4512 19.7227 21.1992 19.5938C20.9472 19.4883 20.6338 19.4355 20.2588 19.4355C19.9248 19.4355 19.6201 19.5117 19.3447 19.6641C19.0693 19.8223 18.8232 20.0977 18.6064 20.4902H16.875Z" fill="white"/>
<path d="M13.3907 15.5068L11.5714 16.8428V14.8916L13.3907 13.5645H15.2277V26.3789H13.3907V15.5068Z" fill="white"/>
</g>
</g>
</svg>
