<svg width="26" height="19" viewBox="0 0 26 19" fill="none" xmlns="http://www.w3.org/2000/svg">
<path d="M13.5 18L24.5 18V1H1.5V6.5" stroke="white" stroke-width="1.2"/>
<path d="M8.8 18.5938C8.8 17.5801 8.59825 16.5764 8.20626 15.6399C7.81427 14.7034 7.23973 13.8525 6.51543 13.1358C5.79114 12.419 4.93127 11.8505 3.98493 11.4626C3.03859 11.0747 2.02431 10.875 1 10.875" stroke="white" stroke-width="1.2"/>
<path d="M11.6 18.6C11.6 17.208 11.3258 15.8296 10.7931 14.5436C10.2604 13.2575 9.47963 12.089 8.49533 11.1047C7.51103 10.1204 6.3425 9.33958 5.05644 8.80688C3.77039 8.27418 2.39201 8 1 8" stroke="white" stroke-width="1.2"/>
<path d="M1.5 13.7754C1.89261 13.8152 2.27926 13.9015 2.65137 14.0332L2.87695 14.1191C3.39736 14.3325 3.87587 14.6328 4.29199 15.0059L4.4668 15.1709C4.86471 15.5647 5.1908 16.0226 5.43066 16.5244L5.52734 16.7422C5.70839 17.1748 5.82435 17.63 5.87305 18.0938H1.5V13.7754Z" fill="white" stroke="white"/>
</svg>
