<svg fill="none" height="24" viewBox="0 0 24 24" width="24" xmlns="http://www.w3.org/2000/svg"><path d="m8.48047 1.75c.22609 0 .44747.08596.60644.21875l.06446.05957.00097.00098c.19664.20392.60084.56977 1.08206.89062.4525.30171 1.1122.65918 1.7842.65918.6715-.00013 1.3304-.35723 1.7812-.65722.4711-.31354.8662-.67017 1.0615-.8711l.001.00098c.1634-.16343.4219-.27735.6816-.27735.1337.00004.2374.02507.3409.07032l.0576.02539.0127.00293 2.8701 1.59961.0039.00195c.2879.22512.3838.61536.2451.92773l-.001.00293c-.001.00234-.0023.00532-.0039.00879-.003.00693-.007.01615-.0117.02735-.0096.02272-.023.05431-.0381.09277-.03.07678-.0697.1846-.1093.31152-.0755.24191-.167.60506-.167.97657.0002 2.03742 1.6568 3.69335 3.6943 3.69335h.1211c.0395.00007.0973.01281.1728.09278.0823.08723.1781.25245.2295.5137l.0039.0185.0049.0186c-.0042-.0169.0542.2842.1231.748.0657.4427.1328.9859.1562 1.459-.0011.4626-.0548 1.0029-.1133 1.4443-.029.2196-.0582.4088-.08.544-.011.0675-.021.1224-.0274.1601-.0027.0163-.005.0323-.0068.043-.0514.2611-.1467.4233-.2285.5088-.074.0772-.1377.0976-.1983.0977h-.1211c-2.0375 0-3.6942 1.6558-3.6943 3.6933 0 .3664.0864.7256.1582.9668.0376.1262.0759.2332.1045.3096.0143.0384.026.0701.0351.0928.0046.0112.0089.0204.0118.0273.0014.0034.0029.0065.0039.0088.0004.001.0006.0021.001.0029v.001l.0009.001.0039.0088c.1396.314.0291.7103-.2382.9121l-.0059.0039-2.9434 1.6123-.0166.0049-.0576.0254c-.1095.0479-.2136.0703-.3174.0703-.2872 0-.5323-.1149-.6855-.2803h-.001c-.2048-.2258-.6166-.6116-1.1035-.9473-.4637-.3197-1.141-.699-1.832-.6992-.6447 0-1.2874.3399-1.7442.6406-.48541.3197-.91456.7002-1.16404.9639l-.00781.0078-.00782.0088c-.13555.1524-.38421.2695-.65039.2695-.10369 0-.20791-.0224-.31738-.0703l-.05762-.0254-.01074-.0029-2.73926-1.54-.03711-.0274-.10644-.0908c-.22361-.2284-.28871-.5709-.16797-.8516.00601-.0123.01209-.0224.01562-.0302.01567-.0347.03139-.0748.04688-.1153.03163-.0826.06957-.1925.10644-.3193.07102-.2442.15235-.601.15235-.9629-.00022-2.0374-1.65598-3.6932-3.69336-3.6934h-.13379c-.03945 0-.09734-.0128-.17285-.0927-.08148-.0865-.17583-.2497-.227541-.5069-.002383-.0168-.004059-.0356-.006836-.0537-.006745-.0439-.01758-.1079-.028321-.1767-.022324-.1431-.05184-.3359-.081054-.5557-.059326-.4464-.114258-.9803-.114258-1.4268.000036-.4548.052825-.9901.110352-1.4326.028376-.2182.056807-.4084.079101-.5468.011129-.0692.021402-.1253.02832-.1651.007058-.0406.009872-.059.009766-.0586l.00293-.0127.001953-.0127c.041588-.25364.131088-.40962.207028-.4902.06841-.07249.13022-.09272.19141-.09278h.12109c2.03749 0 3.69409-1.65593 3.69434-3.69335 0-.36629-.08639-.72563-.1582-.9668-.03757-.12612-.07594-.23317-.1045-.30957-.01435-.0384-.02602-.07014-.03515-.09278-.00456-.01131-.00883-.02039-.01172-.02734-.00141-.00338-.00196-.0065-.00293-.00879-.00049-.00116-.00158-.00206-.00195-.00293v-.00195h-.00098l-.00391-.00977-.04101-.12402c-.06734-.28792.04525-.61088.27734-.78711l.01172-.00586 2.9707-1.65137.03028-.01074c.13357-.05009.24885-.07323.35449-.07324zm3.44043 5.5752c-2.73734.00019-4.9902 2.22305-4.99024 4.9902 0 2.7374 2.22307 4.9901 4.99024 4.9903 2.7538 0 4.9902-2.2514 4.9902-4.9903 0-2.73746-2.2229-4.9902-4.9902-4.9902z" stroke="#fff" stroke-width="1.5"/></svg>